<svg width="1617" height="439" viewBox="0 0 1617 439" fill="none" xmlns="http://www.w3.org/2000/svg">
<mask id="mask0_5_2" style="mask-type:alpha" maskUnits="userSpaceOnUse" x="104" y="-218" width="372" height="625">
<rect x="260.95" y="-217.557" width="222.519" height="317.779" transform="rotate(15.4868 260.95 -217.557)" fill="#D9D9D9"/>
<rect x="174.917" y="92.8369" width="222.519" height="263.779" transform="rotate(15.4868 174.917 92.8369)" fill="#D9D9D9"/>
</mask>
<g mask="url(#mask0_5_2)">
<path d="M318.5 68.9761H317.459L317.476 70.0174L320.396 241.389L214.628 69.4635L214.328 68.9761H213.756H199H197.205L198.119 70.5211L205.588 83.156L208.727 338.013L208.748 339.709L210.239 338.9L220.47 333.349L221.005 333.058V332.449V108.712L317.636 260.55L318.264 261.537L319.159 260.783L320.704 259.483L320.824 266.517L320.831 266.949L321.145 267.245L336.145 281.37L337.929 283.05L337.871 280.601L332.896 69.9758L332.873 68.9761H331.873H318.5ZM325.166 253.051L322.678 255.145L322.57 248.832L325.166 253.051Z" fill="url(#paint0_linear_5_2)" stroke="url(#paint1_linear_5_2)" stroke-width="2.04778"/>
</g>
<path fill-rule="evenodd" clip-rule="evenodd" d="M318.687 262C267 192.5 194.511 180.214 157.304 189.127C119.702 198.134 101.166 234.096 101.166 269.553C101.166 305.01 119.702 340.972 157.304 349.98C194.511 358.892 249.341 341.101 321.583 272.319C393.825 341.101 448.655 358.892 485.862 349.98C523.464 340.972 542 305.01 542 269.553C542 234.096 523.464 198.134 485.862 189.127C448.655 180.214 390.929 193.217 318.687 262ZM323 268C394.921 336.434 450.745 353.912 485.862 345.5C521.065 337.067 538 303.858 538 269.553C538 235.249 508.286 211.933 473.083 203.5C437.967 195.088 394.921 199.566 323 268ZM318.687 269.553C246.765 201.119 183.199 190.088 148.083 198.5C112.88 206.933 105.166 235.249 105.166 269.553C105.166 303.858 123.033 328.067 158.236 336.5C193.352 344.912 246.765 337.988 318.687 269.553Z" fill="#762FB5"/>
<path d="M655.386 220.25V299H660.606V220.25H655.386ZM650.256 288.11L612.186 232.31V299H606.966V224.66L603.996 220.25H609.756L650.256 279.74V288.11ZM756.88 259.58V259.85C756.88 265.31 755.89 270.44 753.91 275.24C751.93 279.98 749.23 284.15 745.81 287.75C742.39 291.29 738.37 294.11 733.75 296.21C729.19 298.25 724.3 299.27 719.08 299.27C713.86 299.27 708.94 298.25 704.32 296.21C699.76 294.11 695.77 291.29 692.35 287.75C688.93 284.15 686.23 279.98 684.25 275.24C682.27 270.44 681.28 265.31 681.28 259.85V259.58H686.5V259.85C686.5 264.53 687.34 268.94 689.02 273.08C690.76 277.16 693.1 280.76 696.04 283.88C698.98 286.94 702.43 289.37 706.39 291.17C710.35 292.91 714.58 293.78 719.08 293.78C723.58 293.78 727.81 292.91 731.77 291.17C735.73 289.37 739.18 286.94 742.12 283.88C745.06 280.76 747.37 277.16 749.05 273.08C750.79 268.94 751.66 264.53 751.66 259.85V259.58H756.88ZM719.08 220.52C723.88 220.52 728.41 221.39 732.67 223.13C736.93 224.87 740.71 227.27 744.01 230.33C747.37 233.33 750.13 236.9 752.29 241.04C754.51 245.18 755.92 249.65 756.52 254.45H751.21C750.61 250.37 749.35 246.62 747.43 243.2C745.51 239.72 743.11 236.69 740.23 234.11C737.41 231.53 734.2 229.52 730.6 228.08C727 226.64 723.16 225.92 719.08 225.92C715.06 225.92 711.22 226.64 707.56 228.08C703.96 229.52 700.72 231.53 697.84 234.11C695.02 236.69 692.65 239.72 690.73 243.2C688.81 246.62 687.55 250.37 686.95 254.45L682.72 249.23C683.8 245.09 685.48 241.28 687.76 237.8C690.1 234.26 692.86 231.23 696.04 228.71C699.22 226.13 702.76 224.12 706.66 222.68C710.62 221.24 714.76 220.52 719.08 220.52ZM816.068 285.5L818.678 291.98L848.918 220.25H842.978L816.068 285.5ZM810.758 299L777.548 220.25H783.758L816.158 299H810.758ZM939.168 299H933.048L904.428 234.11L875.718 299H869.598L901.278 227.18L898.218 220.25H904.428L907.488 227.18L939.168 299ZM1003.9 299H998.678V220.25L1003.9 225.47V299ZM1076.02 220.25V299H1081.24V220.25H1076.02ZM1070.89 288.11L1032.82 232.31V299H1027.6V224.66L1024.63 220.25H1030.39L1070.89 279.74V288.11ZM1155.83 259.58H1107.14V299H1101.92V254.45H1155.83V259.58ZM1104.26 225.47H1155.83V220.25H1101.92L1104.26 225.47ZM1181.78 299H1176.56V220.25L1181.78 225.47V299ZM1253.91 220.25V299H1259.13V220.25H1253.91ZM1248.78 288.11L1210.71 232.31V299H1205.49V224.66L1202.52 220.25H1208.28L1248.78 279.74V288.11ZM1285.02 299H1279.8V220.25L1285.02 225.47V299ZM1363.99 220.25V225.47H1308.19L1305.76 220.25H1363.99ZM1337.71 230.6V299H1332.13V230.6H1337.71ZM1390.29 265.88C1390.29 274.28 1392.27 280.88 1396.23 285.68C1400.25 290.42 1405.8 293.12 1412.88 293.78V298.91C1408.74 298.61 1404.93 297.71 1401.45 296.21C1397.97 294.65 1395 292.52 1392.54 289.82C1390.08 287.06 1388.16 283.73 1386.78 279.83C1385.4 275.93 1384.71 271.46 1384.71 266.42V220.25L1390.29 225.47V265.88ZM1446.63 220.25V265.79C1446.63 270.89 1445.94 275.45 1444.56 279.47C1443.24 283.43 1441.32 286.82 1438.8 289.64C1436.34 292.4 1433.37 294.56 1429.89 296.12C1426.47 297.68 1422.66 298.61 1418.46 298.91V293.78C1425.42 293.3 1430.91 290.78 1434.93 286.22C1439.01 281.6 1441.05 275 1441.05 266.42V220.25H1446.63ZM1476.54 254.45C1474.44 252.71 1472.88 250.7 1471.86 248.42C1470.9 246.14 1470.42 243.53 1470.42 240.59V240.41C1470.42 237.53 1471.02 234.86 1472.22 232.4C1473.48 229.94 1475.19 227.81 1477.35 226.01C1479.57 224.21 1482.18 222.8 1485.18 221.78C1488.18 220.76 1491.45 220.25 1494.99 220.25C1497.81 220.25 1500.39 220.46 1502.73 220.88C1505.07 221.24 1507.29 221.81 1509.39 222.59C1511.49 223.31 1513.5 224.27 1515.42 225.47C1517.4 226.61 1519.35 227.96 1521.27 229.52L1517.67 234.02C1514.07 230.9 1510.41 228.68 1506.69 227.36C1502.97 226.04 1499.01 225.38 1494.81 225.38C1491.99 225.38 1489.41 225.77 1487.07 226.55C1484.79 227.27 1482.84 228.29 1481.22 229.61C1479.6 230.93 1478.34 232.49 1477.44 234.29C1476.54 236.03 1476.09 237.89 1476.09 239.87V240.05C1476.09 241.67 1476.27 243.17 1476.63 244.55C1477.05 245.93 1477.74 247.22 1478.7 248.42C1479.72 249.56 1481.07 250.64 1482.75 251.66C1484.49 252.68 1486.68 253.61 1489.32 254.45H1476.54ZM1508.76 259.67C1513.98 261.59 1517.73 264.02 1520.01 266.96C1522.35 269.9 1523.52 273.56 1523.52 277.94V278.12C1523.52 281.18 1522.89 284 1521.63 286.58C1520.37 289.16 1518.63 291.38 1516.41 293.24C1514.19 295.04 1511.52 296.45 1508.4 297.47C1505.34 298.49 1501.95 299 1498.23 299C1492.11 299 1486.59 297.98 1481.67 295.94C1476.75 293.9 1471.98 290.84 1467.36 286.76L1471.05 282.53C1473.15 284.45 1475.22 286.13 1477.26 287.57C1479.36 289.01 1481.52 290.21 1483.74 291.17C1485.96 292.07 1488.27 292.76 1490.67 293.24C1493.07 293.66 1495.68 293.87 1498.5 293.87C1501.38 293.87 1503.99 293.48 1506.33 292.7C1508.73 291.92 1510.77 290.87 1512.45 289.55C1514.19 288.17 1515.51 286.55 1516.41 284.69C1517.37 282.83 1517.85 280.82 1517.85 278.66V278.48C1517.85 276.44 1517.52 274.61 1516.86 272.99C1516.26 271.37 1515.15 269.9 1513.53 268.58C1511.91 267.26 1509.69 266.09 1506.87 265.07C1504.11 263.99 1500.57 263.03 1496.25 262.19C1494.45 261.83 1492.74 261.44 1491.12 261.02C1489.56 260.6 1488.09 260.15 1486.71 259.67H1508.76Z" fill="url(#paint2_linear_5_2)"/>
<defs>
<linearGradient id="paint0_linear_5_2" x1="389.444" y1="70" x2="110.433" y2="70" gradientUnits="userSpaceOnUse">
<stop stop-color="#060203"/>
<stop offset="0.200193" stop-color="#762FB5"/>
<stop offset="1" stop-color="#B118DD"/>
</linearGradient>
<linearGradient id="paint1_linear_5_2" x1="389.444" y1="70" x2="110.433" y2="70" gradientUnits="userSpaceOnUse">
<stop stop-color="#060203"/>
<stop offset="0.200193" stop-color="#762FB5"/>
<stop offset="1" stop-color="#B118DD"/>
</linearGradient>
<linearGradient id="paint2_linear_5_2" x1="654" y1="173.5" x2="1476.5" y2="169" gradientUnits="userSpaceOnUse">
<stop offset="0.453981" stop-color="#762FB5"/>
<stop offset="1" stop-color="#B118DD"/>
</linearGradient>
</defs>
</svg>
